<?xml version="1.0" standalone="no"?>
<!DOCTYPE svg PUBLIC "-//W3C//DTD SVG 20010904//EN"
 "http://www.w3.org/TR/2001/REC-SVG-20010904/DTD/svg10.dtd">
<svg version="1.0" xmlns="http://www.w3.org/2000/svg"
 width="197.000000pt" height="197.000000pt" viewBox="0 0 197.000000 197.000000"
 preserveAspectRatio="xMidYMid meet">
<metadata>
Created by potrace 1.11, written by Peter Selinger 2001-2013
</metadata>
<g transform="translate(0.000000,197.000000) scale(0.100000,-0.100000)"
fill="#000000" stroke="none">
<path d="M895 1376 c-65 -31 -127 -96 -162 -171 -26 -56 -28 -68 -28 -190 1
-111 4 -137 22 -177 45 -98 136 -167 242 -184 l41 -7 0 34 c0 24 -7 39 -27 55
l-28 22 0 267 0 267 28 22 c19 16 27 31 27 54 0 29 -3 32 -32 32 -18 0 -55
-11 -83 -24z"/>
<path d="M1050 1365 c0 -30 5 -37 34 -49 42 -18 85 -73 107 -139 19 -56 37
-74 63 -64 15 6 16 23 14 144 -3 125 -5 138 -21 141 -11 2 -27 -5 -38 -16 -19
-21 -19 -21 -86 -1 -37 10 -69 19 -70 19 -2 0 -3 -16 -3 -35z"/>
<path d="M60 1260 c0 -102 2 -122 16 -127 27 -10 47 11 59 63 13 55 27 85 49
104 9 7 16 28 16 46 l0 34 -70 0 -70 0 0 -120z"/>
<path d="M240 1076 c0 -167 -3 -312 -6 -321 -4 -9 -18 -21 -31 -26 -18 -6 -23
-15 -21 -32 3 -22 4 -22 173 -22 169 0 170 0 173 22 2 17 -3 26 -21 32 -13 5
-27 17 -31 26 -3 9 -6 154 -6 321 l0 304 -115 0 -115 0 0 -304z"/>
<path d="M510 1346 c0 -18 7 -39 16 -46 22 -19 36 -49 49 -104 12 -52 32 -73
59 -63 14 5 16 25 16 127 l0 120 -70 0 -70 0 0 -34z"/>
<path d="M1330 1260 c0 -102 2 -122 16 -127 27 -10 47 11 59 63 13 55 27 85
49 104 9 7 16 28 16 46 l0 34 -70 0 -70 0 0 -120z"/>
<path d="M1510 1076 c0 -167 -3 -312 -6 -321 -4 -9 -18 -21 -31 -26 -18 -6
-23 -15 -21 -32 3 -22 4 -22 173 -22 169 0 170 0 173 22 2 17 -3 26 -21 32
-13 5 -27 17 -31 26 -3 9 -6 154 -6 321 l0 304 -115 0 -115 0 0 -304z"/>
<path d="M1780 1346 c0 -18 7 -39 16 -46 22 -19 36 -49 49 -104 12 -52 32 -73
59 -63 14 5 16 25 16 127 l0 120 -70 0 -70 0 0 -34z"/>
<path d="M1962 1350 c0 -14 2 -19 5 -12 2 6 2 18 0 25 -3 6 -5 1 -5 -13z"/>
<path d="M1200 837 c-26 -55 -57 -85 -107 -102 -34 -12 -38 -17 -41 -50 -3
-37 -3 -37 30 -30 89 18 192 124 186 189 -2 23 -9 32 -25 34 -18 3 -27 -6 -43
-41z"/>
</g>
</svg>
